<svg xmlns="http://www.w3.org/2000/svg" viewBox="0 0 128 128"><defs><style>.cls-1{isolation:isolate;}.cls-2{mix-blend-mode:multiply;}.cls-3{fill:#e05951;}.cls-4{fill:#7569b0;}.cls-5{fill:#e2bc00;}.cls-6{fill:none;stroke:#093357;stroke-linecap:round;stroke-linejoin:round;stroke-width:4px;}</style></defs><title>school-bell</title><g class="cls-1"><g id="icons" class="cls-2"><path class="cls-3" d="M94.35,89C90.5,86.24,86,77.45,86,59a22,22,0,0,0-44,0c0,18.45-4.5,27.24-8.35,30Z"/><rect class="cls-4" x="28" y="89" width="72" height="8" rx="4" ry="4"/><path class="cls-5" d="M52.69,97H75.31a12,12,0,0,1-22.62,0Z"/><path class="cls-5" d="M52.69,97H75.31a12,12,0,0,1-22.62,0Z"/><line class="cls-6" x1="102" y1="60" x2="114" y2="60"/><line class="cls-6" x1="99.81" y1="76.08" x2="110.9" y2="80.68"/><line class="cls-6" x1="97.4" y1="45" x2="108.49" y2="40.41"/><line class="cls-6" x1="26" y1="60" x2="14" y2="60"/><line class="cls-6" x1="28.19" y1="76.08" x2="17.1" y2="80.68"/><line class="cls-6" x1="30.6" y1="45" x2="19.51" y2="40.41"/><path class="cls-5" d="M68.3,35,69,37.58a22.1,22.1,0,0,0-10.06,0L59.7,35a6.8,6.8,0,0,0-.37-4.74,5.09,5.09,0,0,1-.4-3,5.14,5.14,0,0,1,10.21.88,5.07,5.07,0,0,1-.47,2.13A6.89,6.89,0,0,0,68.3,35Z"/></g></g></svg>